# xmcd
#
# Track frame offsets:
#	150
#	16971
#	32959
#	50148
#	67076
#	82981
#	101260
#	122719
#	140750
#	156998
#	177518
#	197723
#	213156
#	228746
#	244931
#	273156
#	291113
#	315460
#
# Disc length: 4439
#
# Revision: 1
# Processed by: cddbd v1.5.1PL0 Copyright (c) Steve Scherf et al.
# Submitted via: EasyCDDAExtractor 7.1.2.1
# Normalized: r0:DSETVAR1
#
DISCID=0c115512
DTITLE=Various Artist - Pure Groove 80's Slowjams
DYEAR=2004
DGENRE=R&B
TTITLE0=Kool and the Gang - Cherish
TTITLE1=Imagination - Body Talk
TTITLE2=Atlantic Starr - Always
TTITLE3=Commodores - Still
TTITLE4=Earth Wind and Fire - After The Love Has Gone
TTITLE5=Jeffrey Osborne - On The Wings of Love
TTITLE6=Heatwave - Always and Forever
TTITLE7=Peaches and Herb - Reunited
TTITLE8=Billy Preston Feat. Syreeta - With You I'm Born Again
TTITLE9=Champaign - How 'Bout Us
TTITLE10=Odyssey - If You're Lookin' For A Way Out
TTITLE11=Stephanie Mills - Never New Love Like This Before
TTITLE12=Mica Paris and Will Downing - Where is the Love
TTITLE13=Mica Paris - My One Temptation
TTITLE14=Princess - Say I'm Your No 1
TTITLE15=Boris Gardener - I Wanna Wake Up With You
TTITLE16=Hi-Gloss - You'll Never Know
TTITLE17=Billy Griffin - Hold Me Tighter In The Rain
EXTD=
EXTT0=
EXTT1=
EXTT2=
EXTT3=
EXTT4=
EXTT5=
EXTT6=
EXTT7=
EXTT8=
EXTT9=
EXTT10=
EXTT11=
EXTT12=
EXTT13=
EXTT14=
EXTT15=
EXTT16=
EXTT17=
PLAYORDER=
